inDegrees=no
num_controls=7
num_derivatives=13
num_iterations=152
num_multipliers=7
num_parameters=0
num_slacks=7
num_states=26
objective=5.603831
objective_accelerations=0.639710
objective_balance=0.051117
objective_effort=0.515090
objective_height=4.377273
objective_ligament=0.020641
solver_duration=1775.474488
status=Solve_Succeeded
success=true
DataType=double
version=3
OpenSimVersion=4.4-2022-07-23-0e9fedc
endheader
time	/jointset/ground_pelvis/pelvis_tilt/value	/jointset/ground_pelvis/pelvis_tx/value	/jointset/ground_pelvis/pelvis_ty/value	/jointset/hip_l/hip_flexion_l/value	/jointset/hip_l/hip_adduction_l/value	/jointset/hip_l/hip_rotation_l/value	/jointset/back/lumbar_extension/value	/jointset/patellofemoral_l/patellar_flexion_l/value	/jointset/knee_l/knee_flexion_l/value	/jointset/knee_l/knee_adduction_l/value	/jointset/knee_l/knee_rotation_l/value	/jointset/ankle_l/ankle_angle_l/value	/jointset/subtalar_l/subtalar_angle_l/value	/jointset/ground_pelvis/pelvis_tilt/speed	/jointset/ground_pelvis/pelvis_tx/speed	/jointset/ground_pelvis/pelvis_ty/speed	/jointset/hip_l/hip_flexion_l/speed	/jointset/hip_l/hip_adduction_l/speed	/jointset/hip_l/hip_rotation_l/speed	/jointset/back/lumbar_extension/speed	/jointset/patellofemoral_l/patellar_flexion_l/speed	/jointset/knee_l/knee_flexion_l/speed	/jointset/knee_l/knee_adduction_l/speed	/jointset/knee_l/knee_rotation_l/speed	/jointset/ankle_l/ankle_angle_l/speed	/jointset/subtalar_l/subtalar_angle_l/speed	/forceset/tau_hip_flexion_l	/forceset/tau_hip_adduction_l	/forceset/tau_hip_rotation_l	/forceset/tau_knee_flexion_l	/forceset/tau_ankle_angle_l	/forceset/tau_subtalar_angle_l	/forceset/tau_lumbar_extension	lambda_cid13_p0	lambda_cid13_p1	lambda_cid13_p2	lambda_cid13_p3	lambda_cid13_p4	lambda_cid13_p5	lambda_cid14_p0	/jointset/ground_pelvis/pelvis_tilt/accel	/jointset/ground_pelvis/pelvis_tx/accel	/jointset/ground_pelvis/pelvis_ty/accel	/jointset/hip_l/hip_flexion_l/accel	/jointset/hip_l/hip_adduction_l/accel	/jointset/hip_l/hip_rotation_l/accel	/jointset/back/lumbar_extension/accel	/jointset/patellofemoral_l/patellar_flexion_l/accel	/jointset/knee_l/knee_flexion_l/accel	/jointset/knee_l/knee_adduction_l/accel	/jointset/knee_l/knee_rotation_l/accel	/jointset/ankle_l/ankle_angle_l/accel	/jointset/subtalar_l/subtalar_angle_l/accel	gamma_cid13_p0	gamma_cid13_p1	gamma_cid13_p2	gamma_cid13_p3	gamma_cid13_p4	gamma_cid13_p5	gamma_cid14_p0
1	-0.761667476741305	-0.1916038381580629	0.5733424594842291	2.094394550162333	-0.3090265051096673	0.09251536455643922	-0.436326726217066	1.101479734716656	1.101479734716509	-0.174514490476563	0.1745249821030826	-0.05078409855898556	-0.07038056919860637	-0.01247274407490761	0.000284624899708864	-0.003106425473285589	0.01779280349617291	0.0004686428519877305	0.002615782292442431	-1.120952509431527e-05	0.00667407781429473	0.006674077814294442	-7.851291806758329e-06	-1.588941267700677e-05	0.00186456663938152	0.0007428986734774071	-0.495362471648654	-0.01198124349874114	-0.01823757330362783	-0.2161254056838197	0.2443155957355108	0.0359545815194005	0.3833112560569421	30.78811381298773	-20.6152275957337	2.438026958107745	0.1982314285731847	-737.0220907356312	-45.09301805500206	-3.782534373624103	2.261128066115651	0.4409992294084842	1.76910989035643	-6.778180122640521	-0.2382869796193521	-1.556809777216165	-0.01921054908424907	-4.24372049089587	-4.243720490895913	-0.03151169000137195	0.01386175953030545	0.03450884634477839	-0.1763861931331814	2.210457390236024e-10	1.784832258164673e-09	-3.360124927562892e-09	8.071530344204827e-10	4.161244119033517e-10	-2.395732995581388e-09	9.295580215259068e-10
1.01	-0.7616799745020625	-0.1915790096280928	0.5733997737155695	2.094234468089665	-0.3090329351645067	0.09246315408665531	-0.4363267798693741	1.101334274859112	1.101334274859206	-0.1745145011138055	0.1745249431855511	-0.05076360118287896	-0.07038115904057261	0.009984826602848097	0.004684949227003815	0.0145706935558397	-0.04982339086048242	-0.001752322577849592	-0.01305598696981012	4.646342159780011e-07	-0.0357664531592071	-0.03576645315921022	5.697668635476128e-06	7.068177285215094e-06	0.002237562878136103	-0.0008580943621206476	-0.4954444493596548	-0.01193490427840004	-0.01824176813640367	-0.2160831425939355	0.2443058917512363	0.03599296358953355	0.3834056400345816	30.78442050416362	-20.63149082176836	2.440894407579127	0.1550158794835271	-737.0756832568227	-45.12034493507591	-3.788637279797295	2.239816419877298	0.4401295212846955	1.767225295858726	-6.755465463774156	-0.2136525832779013	-1.572080109319613	0.01135423377538155	-4.244279289606992	-4.244279289607303	0.01778298686532058	-0.003646494665224842	0.03909341234955666	-0.1515408686301834	-2.044430129035829e-09	-4.406791271406164e-09	1.363025719453638e-08	1.330308063803538e-09	-4.378479519642063e-09	1.70654339146099e-08	-3.388031568857121e-09
1.02	-0.7614675475857874	-0.1915100617574701	0.5736339016145349	2.093397798799052	-0.3090615051253652	0.09225428200251573	-0.4363267172129813	1.100764397714027	1.100764397714362	-0.1745143773019038	0.1745251019930878	-0.0507392941644367	-0.07039767581486683	0.03251219133146509	0.009108493030203666	0.03225630805169327	-0.1175246400809627	-0.003959338352162768	-0.02871654057565061	1.2052207006708e-05	-0.0782093796938861	-0.07820937969389198	1.903854101159045e-05	2.365563147115611e-05	0.00262649510524237	-0.002442487792000146	-0.495526427070651	-0.01188856505806634	-0.01824596296923332	-0.2160408795040548	0.244296187766954	0.03603134565965788	0.383500024012228	30.77768783993223	-20.64848191113153	2.445317430882861	0.09874338285701648	-737.1812762754174	-45.12695367259624	-3.812542668562417	2.27508687628784	0.4456431245894203	1.770808983702042	-6.79519109540534	-0.2354970485144616	-1.554566645933665	-0.01922786638804185	-4.244199603131281	-4.244199603131309	-0.03155330761456804	0.01258773237493372	0.03769604401505294	-0.1730662719894235	-3.564204668482463e-09	-1.094734560157365e-08	3.05352000143964e-08	-4.064163573311405e-10	-8.158940339983621e-09	3.663700288499383e-08	-7.930933972667915e-09
1.03	-0.761029574121626	-0.1913967454533283	0.5740448385409833	2.09188394862664	-0.3091120441215662	0.09188891817256102	-0.4363265487522386	1.099770196047076	1.099770196047158	-0.1745141375904255	0.1745254085515988	-0.05071108117069247	-0.07042993670414019	0.0550865236906126	0.01356031868621873	0.04992357700907559	-0.1852339021216996	-0.006142293211098297	-0.04434909712638112	2.068502677308286e-05	-0.1206196132784002	-0.1206196132783962	2.876910251331956e-05	3.754478747359737e-05	0.003012764000047719	-0.004004498122423289	-0.4950288343613162	-0.01180973138044168	-0.01827208493702819	-0.216077924328117	0.2443855804531495	0.03610626497604541	0.3832237239576753	30.82926522306303	-20.69379648296335	2.456820839448448	-0.01940319060285476	-736.8846968947573	-45.2059578493592	-3.854455098160359	2.249208316074605	0.4457844752745336	1.76355840869446	-6.757071605933008	-0.2087731369658662	-1.566541357702175	0.01076561952947376	-4.237731650753918	-4.23773165075232	0.01721155411031657	-0.00423964612331095	0.03859252274409162	-0.1469925128807626	-5.076370010698349e-09	-1.749146045011458e-08	4.743927100464174e-08	-2.16620077285887e-09	-1.192905276123126e-08	5.620969840701236e-08	-1.247613548681981e-08
1.04	-0.7603657369538029	-0.1912387444547924	0.5746322226683934	2.089693350264309	-0.3091842283528314	0.09136744053746076	-0.4363263226106455	1.098352232761351	1.098352232761187	-0.174513805510141	0.1745258481709257	-0.05067910544588806	-0.07047766251658072	0.07768493206360605	0.01804543190902749	0.0675457482439893	-0.2528742780634261	-0.008288385365336638	-0.05993930159948532	2.358838136957243e-05	-0.1629617034486027	-0.162961703448588	3.751230712573832e-05	5.026781002909598e-05	0.003379041316087243	-0.005535472425326379	-0.4945312416520124	-0.01173089770284775	-0.01829820690489643	-0.2161149691521737	0.244474973139338	0.0361811842924015	0.3829474239030894	30.87777786512076	-20.73986691698868	2.46992133989335	-0.1507847553042529	-736.6405747073503	-45.26468767659605	-3.914594820861433	2.279902079056998	0.4523006379481135	1.761789439208297	-6.781413875603149	-0.2281245075748531	-1.546096230408129	-0.02037375942191889	-4.230570920268995	-4.230570920268873	-0.03175077899240185	0.01235450568519502	0.0336977282618469	-0.1668590664852562	-6.668415390556712e-09	-2.379234230755716e-08	6.323307707579854e-08	-3.353712353785469e-09	-1.584917455819411e-08	7.442516756136775e-08	-1.667456323509041e-08
1.05	-0.7594757290775696	-0.1910356942665886	0.575395553015104	2.086826736713792	-0.3092776653308792	0.09069032083541828	-0.4363261331426876	1.096511259271631	1.096511259271753	-0.1745134208274637	0.1745264267042146	-0.05064360819618911	-0.07054052863648175	0.1003267195758848	0.02257322669157241	0.08510785471255192	-0.3204321356502705	-0.01038900266079688	-0.07547405835068276	1.024312921289074e-05	-0.2052147207918394	-0.2052147207918357	3.959940038510765e-05	6.605036863473602e-05	0.003713432377791624	-0.007029620345969689	-0.4936967820991938	-0.01157990526648267	-0.01834109461884523	-0.2161566160931122	0.2445567285065422	0.03631243109327925	0.3824856056752892	30.94059488595864	-20.81428192509146	2.48911328917632	-0.311699795613843	-736.1563004532412	-45.38727304189877	-3.993383300944665	2.257826123412995	0.4543111257578308	1.751547298356914	-6.740530097460497	-0.1995351577186231	-1.555595816547681	0.007575779584143437	-4.219921871296847	-4.219921871298404	0.01620718209435209	-0.00373889424973433	0.03226529790927764	-0.1394776347779573	-8.2629570215914e-09	-3.008562313402792e-08	7.899218736823382e-08	-4.523340408630787e-09	-1.977398414814806e-08	9.259822339173369e-08	-2.086215430317722e-08
1.06	-0.7583590015189987	-0.1907871076850886	0.5763341296360356	2.083285032907948	-0.3093918094453182	0.08985816748202163	-0.4363261989896415	1.094248304662491	1.094248304662912	-0.1745130115281529	0.1745271772579514	-0.05060497593531094	-0.0706180932315746	0.1230288685321444	0.02715271056826184	0.1025950030881583	-0.3878923291265163	-0.0124298126437292	-0.0909460318647656	-2.747461506585211e-05	-0.2473579273329031	-0.2473579273329092	4.243563801352571e-05	8.467191932507023e-05	0.00400604355087805	-0.008475167463578143	-0.4928623225464214	-0.01142891283015382	-0.01838398233288027	-0.2161982630340422	0.2446384838737402	0.03644367789412031	0.3820237874474377	31.00026954794307	-20.889502459805	2.509982493590866	-0.485845792813773	-735.7255628476505	-45.49046426793989	-4.091265582832455	2.291974367853155	0.4626384567769672	1.746797820617042	-6.761881053483354	-0.2161630450690298	-1.53353958298482	-0.02524825784600063	-4.208608759834466	-4.20860875983412	-0.03160095011855894	0.01292230410164425	0.02534175053822928	-0.1571389058780609	-9.672764179351884e-09	-3.579978026332769e-08	9.36122763243786e-08	-5.759023294927904e-09	-2.329526280026029e-08	1.088110137146923e-07	-2.472568524229736e-08
1.07	-0.7570149756219544	-0.1904924440507169	0.5774471336065012	2.079069376853052	-0.309526040902429	0.08887168004227675	-0.4363267133727298	1.091564552276166	1.091564552276217	-0.1745126169040119	0.1745281371843382	-0.05056367683154846	-0.07070986010291988	0.1457827513661387	0.03179084552327129	0.119986402122503	-0.4552055494736367	-0.01440198304773125	-0.1063357785112821	-7.3206850575919e-05	-0.2893658451210687	-0.2893658451210455	3.714783857790598e-05	0.0001070680229252107	0.004242513005011887	-0.009866649560096113	-0.4916358799721409	-0.01121589042914097	-0.01844310703768326	-0.2162492547711246	0.2447238543911791	0.03662456981721526	0.3813380148825729	31.08076054512727	-20.99161740819574	2.537068103944742	-0.6958641933556112	-735.006706939217	-45.65639937913006	-4.208885523225811	2.268057970362343	0.4660239801351013	1.73239720394808	-6.711046598353216	-0.1855778618675899	-1.539364449240466	0.00609356636964639	-4.192871798198143	-4.192871798193656	0.01509589288273086	-0.003166875993725691	0.02111260346695697	-0.1284256172497591	-1.107274503534246e-08	-4.148313294065028e-08	1.081717790392313e-07	-6.99821973608948e-09	-2.679507704078519e-08	1.249195345957675e-07	-2.857197894051502e-08
1.08	-0.7554432183507511	-0.1901510744737394	0.5787334688191307	2.074181587780094	-0.3096795608283415	0.08773176068731116	-0.4363276192234605	1.088461523009987	1.088461523009644	-0.1745122574403227	0.1745293080438337	-0.05052035042111697	-0.07081519634637332	0.1685751433677366	0.03649389908939547	0.1372612515209329	-0.5223189327418074	-0.0162875064038055	-0.1216324149080223	-0.0001057681751504689	-0.3312133033048597	-0.3312133033048089	3.540354869614098e-05	0.0001268585472109391	0.004411504883780953	-0.01118904188505998	-0.4904094373977614	-0.01100286802810826	-0.01850223174246931	-0.2163002465082597	0.2448092249085875	0.03680546174032391	0.3806522423178327	31.15799495262605	-21.09461043511385	2.565948241366637	-0.9189995284141455	-734.3429084499196	-45.80429013323611	-4.346905058028148	2.299676201373763	0.4756221789998673	1.723487893434098	-6.721913637693335	-0.1988336354831529	-1.51491753302907	-0.02261407565806334	-4.176516838959605	-4.176516838959643	-0.03089224820773675	0.01240118823812181	0.01184623546527737	-0.1433209515669367	-1.207516053870708e-08	-4.584532012348872e-08	1.213945401511033e-07	-8.418220015512001e-09	-2.9537393518431e-08	1.379022664404852e-07	-3.176876340879025e-08
